<svg width="35" height="35" viewBox="0 0 35 35" fill="none" xmlns="http://www.w3.org/2000/svg">
<path d="M0.533203 2.26269C0.239258 2.41308 0 2.8164 0 3.14452C0 3.48632 0.239258 3.87597 0.546875 4.03319C0.799805 4.16308 0.943359 4.16991 3.05566 4.16991H5.30469L7.77246 12.8242L10.2471 21.4785L10.0488 21.875C9.70703 22.5517 9.55664 23.085 9.55664 23.6523C9.55664 25.0742 10.4795 26.2637 11.8604 26.626C12.1543 26.7012 12.6465 26.7285 13.6719 26.7353C14.9365 26.7422 15.0391 26.749 14.7314 26.8242C14.1572 26.9678 13.7266 27.2139 13.2891 27.6514C12.0791 28.8545 12.0791 30.748 13.2959 31.958C15.0596 33.7285 18.0469 32.7646 18.4707 30.29C18.6348 29.3262 18.3203 28.3691 17.6025 27.6445C17.1719 27.2139 16.625 26.8994 16.1123 26.7969C15.9482 26.7695 17.9033 26.7422 20.6104 26.7422C24.5752 26.7422 25.334 26.7558 25.0537 26.8242C24.4795 26.9678 24.0488 27.2139 23.6113 27.6514C22.4014 28.8545 22.4014 30.7549 23.6113 31.958C25.3887 33.7285 28.3691 32.7646 28.793 30.29C29.0596 28.7383 28.0342 27.2002 26.4893 26.8242C26.1953 26.749 26.4141 26.7422 28.1162 26.7353C29.9482 26.7285 30.1055 26.7217 30.3516 26.5918C30.6592 26.4346 30.8984 26.0449 30.8984 25.7031C30.8984 25.3613 30.6592 24.9717 30.3516 24.8144C30.085 24.6777 29.9688 24.6777 21.2461 24.6777C12.9678 24.6777 12.3936 24.6709 12.168 24.5547C11.6143 24.2812 11.4775 23.6797 11.8057 23.0029L11.9902 22.6269H21.0342C30.0029 22.6269 30.085 22.6269 30.3584 22.4902C30.5498 22.3877 30.6729 22.2646 30.7617 22.0596C30.9463 21.6767 35 7.43749 35 7.19823C35 6.91796 34.7266 6.49413 34.4531 6.35058C34.2275 6.22753 33.7422 6.22069 21.1162 6.22069H8.01855L7.56055 4.59374C6.99316 2.61815 6.9248 2.44726 6.53516 2.26269C6.25488 2.12597 6.13867 2.11913 3.51367 2.11913C0.936523 2.12597 0.772461 2.1328 0.533203 2.26269ZM32.5801 8.38769C32.5596 8.45605 31.7734 11.2246 30.8232 14.54L29.1006 20.5762H20.6104H12.1201L10.3975 14.54C9.44727 11.2246 8.66113 8.45605 8.64062 8.38769C8.60645 8.27831 9.20801 8.27147 20.6104 8.27147C32.0127 8.27147 32.6143 8.27831 32.5801 8.38769ZM15.9277 28.916C16.2354 29.0732 16.4746 29.4629 16.4746 29.8115C16.4746 30.3174 15.9551 30.8301 15.4424 30.8301C15.1279 30.8301 14.7041 30.5635 14.5537 30.2695C14.3008 29.7773 14.458 29.2373 14.9434 28.9433C15.2715 28.7451 15.5723 28.7383 15.9277 28.916ZM26.25 28.916C26.5576 29.0732 26.7969 29.4629 26.7969 29.8115C26.7969 30.3174 26.2773 30.8301 25.7646 30.8301C25.4502 30.8301 25.0264 30.5635 24.876 30.2695C24.623 29.7773 24.7803 29.2373 25.2656 28.9433C25.5938 28.7451 25.8945 28.7383 26.25 28.916Z" fill="white"/>
</svg>
